<svg width="38" height="27" viewBox="0 0 38 27" fill="none" xmlns="http://www.w3.org/2000/svg">
<path d="M18.9343 5.49728C15.7971 5.49728 13.254 8.94271 13.254 13.1935C13.254 17.4436 15.7971 20.8897 18.9343 20.8897C22.0703 20.8897 24.6145 17.4449 24.6145 13.1935C24.6145 8.94271 22.0714 5.49728 18.9343 5.49728ZM21.301 17.0416C21.301 17.3453 21.0892 17.5913 20.8277 17.5913H17.0408C16.7793 17.5913 16.5675 17.3453 16.5675 17.0416V15.9421C16.5675 15.6384 16.7793 15.3924 17.0408 15.3924H17.9876V11.5828L17.9597 11.6041C17.908 11.6441 17.8501 11.672 17.7891 11.686C17.7281 11.7 17.6654 11.7 17.6044 11.6858C17.5435 11.6716 17.4855 11.6436 17.4339 11.6034C17.3823 11.5632 17.338 11.5116 17.3036 11.4515L16.7781 10.5369C16.7436 10.4769 16.7197 10.4095 16.7076 10.3387C16.6955 10.2679 16.6956 10.195 16.7078 10.1243C16.72 10.0535 16.7441 9.9862 16.7787 9.92624C16.8133 9.86629 16.8577 9.81485 16.9095 9.77486L17.8166 9.07258C18.0498 8.89199 18.3238 8.79564 18.6041 8.79565H19.4076C19.6692 8.79565 19.881 9.04166 19.881 9.34538V15.3924H20.8277C21.0892 15.3924 21.301 15.6384 21.301 15.9421V17.0416ZM35.9751 0H1.89343C0.8479 0 0 0.984701 0 2.19891V24.188C0 25.4023 0.8479 26.387 1.89343 26.387H35.9751C37.0206 26.387 37.8685 25.4023 37.8685 24.188V2.19891C37.8685 0.984701 37.0206 0 35.9751 0ZM35.0284 18.6908C32.9367 18.6908 31.2415 20.6595 31.2415 23.0886H6.62699C6.62699 20.6595 4.93178 18.6908 2.84014 18.6908V7.6962C4.93178 7.6962 6.62699 5.72748 6.62699 3.29837H31.2415C31.2415 5.72748 32.9367 7.6962 35.0284 7.6962V18.6908Z" fill="black"/>
</svg>
