<svg width="32" height="27" viewBox="0 0 32 27" fill="none" xmlns="http://www.w3.org/2000/svg">
<path d="M27.3694 3.42278C26.1907 1.14093 24.0297 0 21.6722 0H9.88485C7.52738 0 5.36637 1.14093 4.18763 3.42278C-0.330856 11.4093 -1.31314 23.5031 1.83016 26.0132C4.97346 28.5232 12.0459 17.5703 15.7785 17.5703C19.5112 17.5703 26.3872 28.5232 29.7269 26.0132C32.8702 23.5031 31.8879 11.4093 27.3694 3.42278ZM11.8494 11.4093H9.88485V13.6911H7.92029V11.4093H5.95574V9.12743H7.92029V6.84557H9.88485V9.12743H11.8494V11.4093ZM22.458 12.5502C22.458 13.6911 21.6722 14.6039 20.6899 14.6039C19.7077 14.6039 18.9218 13.6911 18.9218 12.5502C18.9218 11.4093 19.7077 10.4965 20.6899 10.4965C21.6722 10.4965 22.458 11.4093 22.458 12.5502ZM26.1907 7.9865C26.1907 9.12743 25.4049 10.0402 24.4226 10.0402C23.4403 10.0402 22.6545 9.12743 22.6545 7.9865C22.6545 6.84557 23.4403 5.93283 24.4226 5.93283C25.4049 5.93283 26.1907 6.84557 26.1907 7.9865Z" fill="black"/>
</svg>
