<svg width="21" height="37" viewBox="0 0 21 37" fill="none" xmlns="http://www.w3.org/2000/svg">
<path d="M17.3564 28.0362H3.15571V4.94756H17.3564V28.0362ZM10.2561 34.6329C9.62836 34.6329 9.02636 34.3723 8.5825 33.9084C8.13864 33.4444 7.88929 32.8152 7.88929 32.1591C7.88929 31.5031 8.13864 30.8738 8.5825 30.4099C9.02636 29.946 9.62836 29.6854 10.2561 29.6854C10.8838 29.6854 11.4858 29.946 11.9296 30.4099C12.3735 30.8738 12.6229 31.5031 12.6229 32.1591C12.6229 32.8152 12.3735 33.4444 11.9296 33.9084C11.4858 34.3723 10.8838 34.6329 10.2561 34.6329ZM16.5675 0H3.94464C2.89846 0 1.89512 0.434383 1.15536 1.20759C0.415595 1.9808 0 3.02949 0 4.12297V32.1591C0 33.2526 0.415595 34.3013 1.15536 35.0745C1.89512 35.8477 2.89846 36.2821 3.94464 36.2821H16.5675C17.6137 36.2821 18.617 35.8477 19.3568 35.0745C20.0965 34.3013 20.5121 33.2526 20.5121 32.1591V4.12297C20.5121 3.02949 20.0965 1.9808 19.3568 1.20759C18.617 0.434383 17.6137 0 16.5675 0Z" fill="black"/>
</svg>
