<svg width="24" height="37" viewBox="0 0 24 37" fill="none" xmlns="http://www.w3.org/2000/svg">
<path fill-rule="evenodd" clip-rule="evenodd" d="M10.522 0.0357171C3.81234 0.433721 0.306164 4.05644 0 10.6076H6.76847C6.85323 8.33828 8.18166 6.64182 10.6552 6.39169C13.0832 6.14596 15.3866 6.69734 16.0843 8.28001C16.8379 9.98967 15.1462 11.9764 14.3418 12.8103C12.8531 14.3567 10.4349 15.4848 9.18145 17.1532C7.95276 18.7881 7.73424 20.9392 7.63968 23.5718H13.605C13.6886 21.8886 13.8062 20.2762 14.6094 19.2301C15.9159 17.5303 17.8671 16.7338 19.5022 15.3913C21.0642 14.1082 22.7074 12.5619 22.9865 10.1683C23.8243 3.00481 17.6912 -0.390873 10.522 0.0357171Z" fill="black"/>
<path d="M11.6555 36.7582C13.7356 36.7582 15.4218 35.1749 15.4218 33.2218C15.4218 31.2687 13.7356 29.6854 11.6555 29.6854C9.57548 29.6854 7.88928 31.2687 7.88928 33.2218C7.88928 35.1749 9.57548 36.7582 11.6555 36.7582Z" fill="black"/>
</svg>
