<svg width="35" height="37" viewBox="0 0 35 37" fill="none" xmlns="http://www.w3.org/2000/svg">
<path d="M33.0947 5.73292L28.6082 1.04795C28.2917 0.715707 27.9156 0.452091 27.5013 0.27225C27.0871 0.0924091 26.6429 -0.000112367 26.1944 1.02416e-07C25.2802 1.02416e-07 24.4208 0.374269 23.7763 1.04795L18.9486 6.09398C18.6307 6.42478 18.3785 6.81796 18.2064 7.25094C18.0344 7.68391 17.9459 8.14816 17.946 8.617C17.946 9.57249 18.304 10.4707 18.9486 11.1444L22.4788 14.8343C21.6524 16.738 20.5036 18.4699 19.0876 19.9464C17.6752 21.4299 16.0184 22.6352 14.1967 23.5041L10.6665 19.8143C10.35 19.482 9.97382 19.2184 9.55958 19.0386C9.14533 18.8587 8.70117 18.7662 8.25261 18.7663C7.33847 18.7663 6.47908 19.1406 5.83454 19.8143L1.00262 24.8559C0.684354 25.1873 0.431926 25.5812 0.259858 26.0149C0.0877902 26.4487 -0.000522029 26.9137 2.32133e-06 27.3833C2.32133e-06 28.3388 0.358079 29.237 1.00262 29.9107L5.48068 34.5913C6.50857 35.6701 7.92824 36.2821 9.38582 36.2821C9.69335 36.2821 9.98823 36.2557 10.2789 36.2028C15.9576 35.2253 21.5899 32.0683 26.1354 27.3217C30.6766 22.5794 33.6929 16.6968 34.6408 10.7437C34.9272 8.92522 34.3501 7.05387 33.0947 5.73292Z" fill="black"/>
</svg>
