<svg width="29" height="30" viewBox="0 0 29 30" fill="none" xmlns="http://www.w3.org/2000/svg">
<path d="M26.6263 0H1.77509C0.887545 0 0 0.927667 0 1.85533V22.7281C0 23.6557 0.887545 24.5834 1.77509 24.5834H10.6505V26.4387C10.6505 27.7271 9.05154 28.2941 7.10036 28.2941V29.6853H21.3011V28.2936C19.3494 28.2936 17.7509 27.7266 17.7509 26.4383V24.5829H26.6263C27.5139 24.5829 28.4014 23.6553 28.4014 22.7276V1.85533C28.4014 0.927667 27.5139 0 26.6263 0ZM27.4547 22.7281C27.4547 23.1085 26.9899 23.5939 26.6263 23.5939H1.77509C1.41108 23.5939 0.946714 23.1085 0.946714 22.7281V20.8727H27.4547V22.7281Z" fill="black"/>
</svg>
